<?xml version="1.0" encoding="UTF-8" standalone="no"?>
<!-- Created with Inkscape (http://www.inkscape.org/) -->

<svg
   xmlns:osb="http://www.openswatchbook.org/uri/2009/osb"
   xmlns:dc="http://purl.org/dc/elements/1.1/"
   xmlns:cc="http://creativecommons.org/ns#"
   xmlns:rdf="http://www.w3.org/1999/02/22-rdf-syntax-ns#"
   xmlns:svg="http://www.w3.org/2000/svg"
   xmlns="http://www.w3.org/2000/svg"
   xmlns:xlink="http://www.w3.org/1999/xlink"
   xmlns:sodipodi="http://sodipodi.sourceforge.net/DTD/sodipodi-0.dtd"
   xmlns:inkscape="http://www.inkscape.org/namespaces/inkscape"
   width="100px"
   height="100px"
   viewBox="0 0 100 100"
   version="1.1"
   id="SVGRoot"
   inkscape:version="0.92.3 (2405546, 2018-03-11)"
   sodipodi:docname="console_border_new.svg">
  <sodipodi:namedview
     id="base"
     pagecolor="#ffffff"
     bordercolor="#666666"
     borderopacity="1.0"
     inkscape:pageopacity="0.0"
     inkscape:pageshadow="2"
     inkscape:zoom="11.313709"
     inkscape:cx="62.421551"
     inkscape:cy="48.508395"
     inkscape:document-units="px"
     inkscape:current-layer="layer2"
     showgrid="true"
     inkscape:window-width="2400"
     inkscape:window-height="1497"
     inkscape:window-x="0"
     inkscape:window-y="0"
     inkscape:window-maximized="1"
     inkscape:pagecheckerboard="true"
     borderlayer="true"
     inkscape:snap-smooth-nodes="true">
    <inkscape:grid
       type="xygrid"
       id="grid4550" />
  </sodipodi:namedview>
  <defs
     id="defs4534">
    <linearGradient
       inkscape:collect="always"
       id="linearGradient2914">
      <stop
         style="stop-color:#276468;stop-opacity:1"
         offset="0"
         id="stop2910" />
      <stop
         style="stop-color:#3c9f9c;stop-opacity:1"
         offset="1"
         id="stop2912" />
    </linearGradient>
    <linearGradient
       id="linearGradient2744"
       osb:paint="solid">
      <stop
         style="stop-color:#276468;stop-opacity:1;"
         offset="0"
         id="stop2742" />
    </linearGradient>
    <radialGradient
       inkscape:collect="always"
       xlink:href="#linearGradient2914"
       id="radialGradient2916"
       cx="25.03125"
       cy="51"
       fx="25.03125"
       fy="51"
       r="20.03125"
       gradientTransform="matrix(0.83847313,0.130602,-0.49765988,3.1950079,29.423874,-115.21453)"
       gradientUnits="userSpaceOnUse" />
    <filter
       inkscape:label="Refractive Gel A"
       inkscape:menu="Ridges"
       inkscape:menu-tooltip="Gel effect with light refraction"
       height="1.4"
       width="1.4"
       y="-0.2"
       x="-0.2"
       style="color-interpolation-filters:sRGB;"
       id="filter2986">
      <feOffset
         dx="7"
         dy="7"
         in="SourceAlpha"
         result="result3"
         id="feOffset2964" />
      <feGaussianBlur
         stdDeviation="8"
         in="result3"
         result="result1"
         id="feGaussianBlur2966" />
      <feComposite
         operator="in"
         in2="result1"
         in="SourceGraphic"
         result="result2"
         id="feComposite2968" />
      <feComposite
         operator="out"
         result="fbSourceGraphic"
         in="result2"
         in2="result2"
         id="feComposite2970" />
      <feColorMatrix
         result="fbSourceGraphicAlpha"
         in="fbSourceGraphic"
         values="0 0 0 -1 0 0 0 0 -1 0 0 0 0 1 0 0 0 0 4 0 "
         id="feColorMatrix2972" />
      <feGaussianBlur
         result="result0"
         in="fbSourceGraphicAlpha"
         stdDeviation="2"
         id="feGaussianBlur2974" />
      <feSpecularLighting
         specularExponent="20"
         specularConstant="1.2"
         surfaceScale="3"
         lighting-color="rgb(255,255,255)"
         result="result1"
         in="result0"
         id="feSpecularLighting2978">
        <feDistantLight
           azimuth="235"
           elevation="45"
           id="feDistantLight2976" />
      </feSpecularLighting>
      <feComposite
         operator="in"
         result="result2"
         in="result1"
         in2="fbSourceGraphicAlpha"
         id="feComposite2980" />
      <feComposite
         in="fbSourceGraphic"
         operator="arithmetic"
         k2="2"
         k3="2"
         in2="result2"
         result="result91"
         id="feComposite2982" />
      <feBlend
         mode="multiply"
         in2="result91"
         id="feBlend2984" />
    </filter>
  </defs>
  <metadata
     id="metadata4537">
    <rdf:RDF>
      <cc:Work
         rdf:about="">
        <dc:format>image/svg+xml</dc:format>
        <dc:type
           rdf:resource="http://purl.org/dc/dcmitype/StillImage" />
        <dc:title />
      </cc:Work>
    </rdf:RDF>
  </metadata>
  <g
     inkscape:groupmode="layer"
     id="layer2"
     inkscape:label="Layer 2"
     style="display:inline;opacity:1">
    <rect
       style="display:inline;fill:url(#radialGradient2916);fill-opacity:1;stroke:none;stroke-width:1.06440878;stroke-opacity:1;filter:url(#filter2986)"
       id="rect1253"
       width="40.0625"
       height="90"
       x="5"
       y="6"
       ry="5" />
    <rect
       ry="5.5999999"
       y="13"
       x="53"
       height="21"
       width="39"
       id="rect2998"
       style="display:inline;fill:#9b1a0a;fill-opacity:1;stroke:none;stroke-width:1.2489996;stroke-opacity:1" />
  </g>
  <g
     id="layer1"
     inkscape:groupmode="layer"
     inkscape:label="Layer 1"
     style="display:inline">
    <path
       style="fill:#000000;fill-opacity:1;stroke:#000000;stroke-width:1px;stroke-linecap:butt;stroke-linejoin:miter;stroke-opacity:1"
       d="M 10,10 V 90 H 40 V 10 Z"
       id="path86"
       inkscape:connector-curvature="0" />
    <rect
       style="fill:#773421;fill-opacity:1;stroke:none;stroke-opacity:1"
       id="rect2988"
       width="35"
       height="15"
       x="55"
       y="16"
       ry="4" />
  </g>
  <g
     inkscape:groupmode="layer"
     id="layer3"
     inkscape:label="Layer 3">
    <path
       id="path1143"
       style="fill:none;stroke:#000000;stroke-width:1px;stroke-linecap:butt;stroke-linejoin:miter;stroke-opacity:1"
       d="m 39,96 c 1,-1 2,-6 0,-6 m -4,6 c 1,-1 2,-6 0,-6 m -5,6 c 1,-1 2,-6 0,-6 m -4,6 c 1,-1 2,-6 0,-6 m -4,6 c 1,-1 2,-6 0,-6 m -4,6 c 1,-1 2,-6 0,-6 m -4,6 c 1,-1 2,-6 0,-6 m 31,1 c -0.0054,3.013212 -1.81361,5 -4.534024,5 H 21.423077 M 10,96 c 1,-1 2,-6 0,-6 m -5,1 c 0.00599,3.013212 2,5 5,5 H 31 M 39,6 c 1,1 1,4 0,4 M 35,6 c 1,1 1,4 0,4 M 31,6 c 1,1 1,4 0,4 M 27,6 c 1,1 1,4 0,4 M 23,6 c 1,1 1,4 0,4 M 19,6 c 1,1 1,4 0,4 M 15,6 c 1,1 1,4 0,4 m 30,1 C 44.99457,7.9867882 43.18639,6 40.465976,6 H 30 m 10,84 c 2,-1 3,0 5,1 v -3 m -5,-2 c 2,-1 3,0 5,1 v 4 m -5,-9 c 2,-1 3,0 5,1 v 4 m -5,-9 c 2,-1 3,0 5,1 v 4 m -5,-9 c 2,-1 3,0 5,1 v 4 m -5,-9 c 2,-1 3,0 5,1 v 4 m -5,-9 c 2,-1 3,0 5,1 v 4 m -5,-9 c 2,-1 3,0 5,1 v 4 m -5,-9 c 2,-1 3,0 5,1 v 4 m -5,-9 c 2,-1 3,0 5,1 v 4 m -5,-9 c 2,-1 3,0 5,1 v 4 m -5,-9 c 2,-1 3,0 5,1 v 4 m -5,-9 c 2,-1 3,0 5,1 v 4 m -5,-9 c 2,-1 3,0 5,1 v 4 m -5,-9 c 2,-1 3,0 5,1 v 4 m -5,-9 c 2,-1 3,0 5,1 v 4 m -5,-9 c 2,-1 3,0 5,1 v 4 m -5,-9 c 2,-1 3,0 5,1 v 4 m -5,-9 c 2,-1 3,0 5,1 v 4 m -5,-9 c 2,-1 3,0 5,1 v 4 m -5,-9 c 2,-1 3,0 5,1 v 4 M 11,6 c 1,1 1,4 0,4 m -6,1 c 0.00599,-3.0132118 2,-5 5,-5 7,0 3.615454,0 20,0 M 10,90 C 8,89 7,90 5,91 v -3 m 5,-2 C 8,85 7,86 5,87 v 4 m 5,-9 C 8,81 7,82 5,83 v 4 m 5,-9 C 8,77 7,78 5,79 v 4 m 5,-9 C 8,73 7,74 5,75 v 4 m 5,-9 C 8,69 7,70 5,71 v 4 m 5,-9 C 8,65 7,66 5,67 v 4 m 5,-9 C 8,61 7,62 5,63 v 4 m 5,-9 C 8,57 7,58 5,59 v 4 m 5,-9 C 8,53 7,54 5,55 v 4 m 5,-9 C 8,49 7,50 5,51 v 4 m 5,-9 C 8,45 7,46 5,47 v 4 m 5,-9 C 8,41 7,42 5,43 v 4 m 5,-9 C 8,37 7,38 5,39 v 4 m 5,-9 C 8,33 7,34 5,35 v 4 m 5,-9 C 8,29 7,30 5,31 v 4 m 5,-9 C 8,25 7,26 5,27 v 4 m 5,-9 C 8,21 7,22 5,23 v 4 m 5,-9 C 8,17 7,18 5,19 v 4 m 5,-9 C 8,13 7,14 5,15 v 4 m 5,-9 C 8,9 7,10 5,11 v 4"
       inkscape:connector-curvature="0"
       sodipodi:nodetypes="cccccccccccccccsccccsccccccccccccccccscccccccccccccccccccccccccccccccccccccccccccccccccccccccccccccccccccscccccccccccccccccccccccccccccccccccccccccccccccccccccccccccccccc" />
  </g>
</svg>
