<?xml version="1.0" encoding="UTF-8" standalone="no"?>
<!-- Created with Inkscape (http://www.inkscape.org/) -->

<svg
   xmlns:osb="http://www.openswatchbook.org/uri/2009/osb"
   xmlns:dc="http://purl.org/dc/elements/1.1/"
   xmlns:cc="http://creativecommons.org/ns#"
   xmlns:rdf="http://www.w3.org/1999/02/22-rdf-syntax-ns#"
   xmlns:svg="http://www.w3.org/2000/svg"
   xmlns="http://www.w3.org/2000/svg"
   xmlns:xlink="http://www.w3.org/1999/xlink"
   xmlns:sodipodi="http://sodipodi.sourceforge.net/DTD/sodipodi-0.dtd"
   xmlns:inkscape="http://www.inkscape.org/namespaces/inkscape"
   width="100px"
   height="100px"
   viewBox="0 0 100 100"
   version="1.1"
   id="SVGRoot"
   inkscape:version="0.92.3 (2405546, 2018-03-11)"
   sodipodi:docname="console_border_new.svg">
  <sodipodi:namedview
     id="base"
     pagecolor="#ffffff"
     bordercolor="#666666"
     borderopacity="1.0"
     inkscape:pageopacity="0.0"
     inkscape:pageshadow="2"
     inkscape:zoom="45.254834"
     inkscape:cx="40.155503"
     inkscape:cy="10.530476"
     inkscape:document-units="px"
     inkscape:current-layer="layer4"
     showgrid="true"
     inkscape:window-width="2400"
     inkscape:window-height="1497"
     inkscape:window-x="0"
     inkscape:window-y="0"
     inkscape:window-maximized="1"
     inkscape:pagecheckerboard="true"
     borderlayer="true"
     inkscape:snap-smooth-nodes="true">
    <inkscape:grid
       type="xygrid"
       id="grid4550" />
  </sodipodi:namedview>
  <defs
     id="defs4534">
    <linearGradient
       inkscape:collect="always"
       id="linearGradient3370">
      <stop
         style="stop-color:#3c9f9c;stop-opacity:1;"
         offset="0"
         id="stop3366" />
      <stop
         style="stop-color:#3c9f9c;stop-opacity:1"
         offset="1"
         id="stop3368" />
    </linearGradient>
    <linearGradient
       id="linearGradient2744"
       osb:paint="solid">
      <stop
         style="stop-color:#276468;stop-opacity:1;"
         offset="0"
         id="stop2742" />
    </linearGradient>
    <filter
       inkscape:label="Refractive Gel A"
       inkscape:menu="Ridges"
       inkscape:menu-tooltip="Gel effect with light refraction"
       height="1.4"
       width="1.4"
       y="-0.2"
       x="-0.2"
       style="color-interpolation-filters:sRGB;"
       id="filter2986">
      <feOffset
         dx="7"
         dy="7"
         in="SourceAlpha"
         result="result3"
         id="feOffset2964" />
      <feGaussianBlur
         stdDeviation="8"
         in="result3"
         result="result1"
         id="feGaussianBlur2966" />
      <feComposite
         operator="in"
         in2="result1"
         in="SourceGraphic"
         result="result2"
         id="feComposite2968" />
      <feComposite
         operator="out"
         result="fbSourceGraphic"
         in="result2"
         in2="result2"
         id="feComposite2970" />
      <feColorMatrix
         result="fbSourceGraphicAlpha"
         in="fbSourceGraphic"
         values="0 0 0 -1 0 0 0 0 -1 0 0 0 0 1 0 0 0 0 4 0 "
         id="feColorMatrix2972" />
      <feGaussianBlur
         result="result0"
         in="fbSourceGraphicAlpha"
         stdDeviation="2"
         id="feGaussianBlur2974" />
      <feSpecularLighting
         specularExponent="20"
         specularConstant="1.2"
         surfaceScale="3"
         lighting-color="rgb(255,255,255)"
         result="result1"
         in="result0"
         id="feSpecularLighting2978">
        <feDistantLight
           azimuth="235"
           elevation="45"
           id="feDistantLight2976" />
      </feSpecularLighting>
      <feComposite
         operator="in"
         result="result2"
         in="result1"
         in2="fbSourceGraphicAlpha"
         id="feComposite2980" />
      <feComposite
         in="fbSourceGraphic"
         operator="arithmetic"
         k2="2"
         k3="2"
         in2="result2"
         result="result91"
         id="feComposite2982" />
      <feBlend
         mode="multiply"
         in2="result91"
         id="feBlend2984" />
    </filter>
    <filter
       inkscape:label="Film Grain"
       inkscape:menu="Image Effects"
       inkscape:menu-tooltip="Adds a small scale graininess"
       style="color-interpolation-filters:sRGB;"
       id="filter3037">
      <feTurbulence
         type="fractalNoise"
         numOctaves="3"
         baseFrequency="1"
         seed="0"
         result="result0"
         id="feTurbulence3027" />
      <feColorMatrix
         result="result4"
         values="0"
         type="saturate"
         id="feColorMatrix3029" />
      <feComposite
         in="SourceGraphic"
         in2="result4"
         operator="arithmetic"
         k1="1.25"
         k2="0.5"
         k3="0.5"
         result="result2"
         id="feComposite3031" />
      <feBlend
         result="result5"
         mode="normal"
         in="result2"
         in2="SourceGraphic"
         id="feBlend3033" />
      <feComposite
         in="result5"
         in2="SourceGraphic"
         operator="in"
         result="result3"
         id="feComposite3035" />
    </filter>
    <filter
       inkscape:collect="always"
       style="color-interpolation-filters:sRGB"
       id="filter3264"
       x="-0.011936842"
       width="1.0238737"
       y="-0.0051545455"
       height="1.0103091">
      <feGaussianBlur
         inkscape:collect="always"
         stdDeviation="0.189"
         id="feGaussianBlur3266" />
    </filter>
    <radialGradient
       inkscape:collect="always"
       xlink:href="#linearGradient3370"
       id="radialGradient3372"
       cx="24.5"
       cy="50"
       fx="24.5"
       fy="50"
       r="19.965537"
       gradientTransform="matrix(1.0768556,0.45077672,-1.0077819,2.4074794,48.506129,-81.417994)"
       gradientUnits="userSpaceOnUse" />
    <filter
       inkscape:collect="always"
       style="color-interpolation-filters:sRGB"
       id="filter3394"
       x="-0.051176471"
       width="1.1023529"
       y="-0.021219512"
       height="1.042439">
      <feGaussianBlur
         inkscape:collect="always"
         stdDeviation="0.725"
         id="feGaussianBlur3396" />
    </filter>
  </defs>
  <metadata
     id="metadata4537">
    <rdf:RDF>
      <cc:Work
         rdf:about="">
        <dc:format>image/svg+xml</dc:format>
        <dc:type
           rdf:resource="http://purl.org/dc/dcmitype/StillImage" />
        <dc:title />
      </cc:Work>
    </rdf:RDF>
  </metadata>
  <g
     inkscape:groupmode="layer"
     id="layer5"
     inkscape:label="Layer 5" />
  <g
     inkscape:groupmode="layer"
     id="layer2"
     inkscape:label="Layer 2"
     style="display:inline;opacity:1">
    <rect
       style="display:inline;fill:#276468;fill-opacity:1;stroke:none;stroke-width:1.06440878;stroke-opacity:1;filter:url(#filter3037)"
       id="rect1253"
       width="40.0625"
       height="90"
       x="5"
       y="6"
       ry="5" />
  </g>
  <g
     inkscape:groupmode="layer"
     id="layer3"
     inkscape:label="Layer 3"
     style="display:inline">
    <path
       style="opacity:0.52399998;fill:url(#radialGradient3372);fill-opacity:1;stroke:none;stroke-width:0.5;stroke-linecap:butt;stroke-linejoin:miter;stroke-miterlimit:4;stroke-dasharray:none;stroke-opacity:1;filter:url(#filter3264)"
       d="M 44,8 H 11 C 9,8 8.5671026,9.940359 8,11 V 92 L 6,94 C 5,92 5,91 5,91 V 11 C 5,7 8,6 10,6 h 30 c 2,0 3,1 4,2 z"
       id="path3060"
       inkscape:connector-curvature="0"
       sodipodi:nodetypes="cccccccccc" />
    <path
       style="opacity:0.548;fill:#183f39;fill-opacity:1;stroke:none;stroke-width:1px;stroke-linecap:butt;stroke-linejoin:miter;stroke-opacity:1;filter:url(#filter3394)"
       d="M 10,90 V 10 H 40 L 42,8 H 25 11 C 10,8 8,9 8,12 V 32.5 53 73.5 Z"
       id="path3268"
       inkscape:connector-curvature="0"
       sodipodi:nodetypes="ccccccccccc" />
    <path
       sodipodi:nodetypes="cccccccccc"
       inkscape:connector-curvature="0"
       id="path3398"
       d="M 44,8 H 11 C 9,8 8.5671026,9.940359 8,11 V 92 L 6,94 C 5,92 5,91 5,91 V 11 C 5,7 8,6 10,6 h 30 c 2,0 3,1 4,2 z"
       style="opacity:0.377;fill:#183f39;fill-opacity:1;stroke:none;stroke-width:0.5;stroke-linecap:butt;stroke-linejoin:miter;stroke-miterlimit:4;stroke-dasharray:none;stroke-opacity:1;filter:url(#filter3264)"
       transform="rotate(-180,25,51)" />
    <path
       sodipodi:nodetypes="ccccccccccc"
       inkscape:connector-curvature="0"
       id="path3408"
       d="M 10,90 V 10 H 40 L 42,8 H 25 11 C 10,8 8,9 8,12 V 32.5 53 73.5 Z"
       style="opacity:0.54799996;fill:#3c9f9c;fill-opacity:1;stroke:none;stroke-width:1px;stroke-linecap:butt;stroke-linejoin:miter;stroke-opacity:1;filter:url(#filter3394)"
       transform="rotate(-180,25,50.5)" />
  </g>
  <g
     id="layer1"
     inkscape:groupmode="layer"
     inkscape:label="Layer 1"
     style="display:inline">
    <rect
       style="opacity:1;fill:#2a1d0d;fill-opacity:1;stroke:#2a1d0d;stroke-width:0.50616693;stroke-miterlimit:4;stroke-dasharray:none;stroke-opacity:1"
       id="rect3410"
       width="30.5625"
       height="80"
       x="10"
       y="10"
       ry="2" />
  </g>
  <g
     inkscape:groupmode="layer"
     id="layer4"
     inkscape:label="Layer 4">
    <path
       id="path1143"
       style="fill:none;stroke:#2a1d0d;stroke-width:0.5;stroke-linecap:butt;stroke-linejoin:miter;stroke-miterlimit:4;stroke-dasharray:none;stroke-opacity:1"
       d="m 39,96 c 1,-1 2,-7 0,-7 m -4,7 c 1,-1 2,-6 0,-6 m -5,6 c 1,-1 2,-6 0,-6 m -4,6 c 1,-1 2,-6 0,-6 m -4,6 c 1,-1 2,-6 0,-6 m -4,6 c 1,-1 2,-6 0,-6 m -4,6 c 1,-1 2,-6 0,-6 m 31,1 c -0.0054,3.013212 -1.81361,5 -4.534024,5 H 21.423077 M 10,96 c 1,-1 3,-7 1,-7 m -6,2 c 0.00599,3.013212 2,5 5,5 H 31 M 39,6 c 1,1 1,4 0,4 M 35,6 c 1,1 1,4 0,4 M 31,6 c 1,1 1,4 0,4 M 27,6 c 1,1 1,4 0,4 M 23,6 c 1,1 1,4 0,4 M 19,6 c 1,1 1,4 0,4 M 15,6 c 1,1 1,4 0,4 m 30,1 C 44.99457,7.9867882 43.18639,6 40.465976,6 H 30 m 9,83 c 2,-1 4,1 6,2 v -3 m -5,-2 c 2,-1 3,0 5,1 v 4 m -5,-9 c 2,-1 3,0 5,1 v 4 m -5,-9 c 2,-1 3,0 5,1 v 4 m -5,-9 c 2,-1 3,0 5,1 v 4 m -5,-9 c 2,-1 3,0 5,1 v 4 m -5,-9 c 2,-1 3,0 5,1 v 4 m -5,-9 c 2,-1 3,0 5,1 v 4 m -5,-9 c 2,-1 3,0 5,1 v 4 m -5,-9 c 2,-1 3,0 5,1 v 4 m -5,-9 c 2,-1 3,0 5,1 v 4 m -5,-9 c 2,-1 3,0 5,1 v 4 m -5,-9 c 2,-1 3,0 5,1 v 4 m -5,-9 c 2,-1 3,0 5,1 v 4 m -5,-9 c 2,-1 3,0 5,1 v 4 m -5,-9 c 2,-1 3,0 5,1 v 4 m -5,-9 c 2,-1 3,0 5,1 v 4 m -5,-9 c 2,-1 3,0 5,1 v 4 m -5,-9 c 2,-1 3,0 5,1 v 4 m -5,-9 c 2,-1 3,0 5,1 v 4 m -5,-8 c 2,-1 3,-1 5,0 v 4 M 11,6 c 1,1 1,5 0,5 M 5,11 C 5.00599,7.9867882 7,6 10,6 H 30 M 11,89 C 9,88 7,90 5,91 v -3 m 5,-2 C 8,85 7,86 5,87 v 4 m 5,-9 C 8,81 7,82 5,83 v 4 m 5,-9 C 8,77 7,78 5,79 v 4 m 5,-9 C 8,73 7,74 5,75 v 4 m 5,-9 C 8,69 7,70 5,71 v 4 m 5,-9 C 8,65 7,66 5,67 v 4 m 5,-9 C 8,61 7,62 5,63 v 4 m 5,-9 C 8,57 7,58 5,59 v 4 m 5,-9 C 8,53 7,54 5,55 v 4 m 5,-9 C 8,49 7,50 5,51 v 4 m 5,-9 C 8,45 7,46 5,47 v 4 m 5,-9 C 8,41 7,42 5,43 v 4 m 5,-9 C 8,37 7,38 5,39 v 4 m 5,-9 C 8,33 7,34 5,35 v 4 m 5,-9 C 8,29 7,30 5,31 v 4 m 5,-9 C 8,25 7,26 5,27 v 4 m 5,-9 C 8,21 7,22 5,23 v 4 m 5,-9 C 8,17 7,18 5,19 v 4 m 5,-9 C 8,13 7,14 5,15 v 4 m 6,-8 C 9,10 7,10 5,11 v 4"
       inkscape:connector-curvature="0"
       sodipodi:nodetypes="cccccccccccccccsccccsccccccccccccccccscccccccccccccccccccccccccccccccccccccccccccccccccccccccccccccccccccscccccccccccccccccccccccccccccccccccccccccccccccccccccccccccccccc" />
  </g>
</svg>
